<svg width="20" height="20" viewBox="0 0 20 20" xmlns="http://www.w3.org/2000/svg">
    <path d="M19.9005 18.8945C19.801 17.9899 19.602 17.0854 19.204 16.1809C18.7065 14.9749 18.01 13.8693 17.0149 12.9648C16.1194 12.0603 15.0249 11.2563 13.8308 10.7538C11.4428 9.74874 8.65672 9.74874 6.16915 10.7538C4.97512 11.2563 3.8806 11.9598 2.98507 12.8643C2.08955 13.7688 1.29353 14.8744 0.79602 16.0804C0.497512 16.9849 0.199005 17.9899 0.0995025 18.8945L0 20H20L19.9005 18.8945ZM2.28856 17.9899C2.38806 17.5879 2.48756 17.2864 2.68657 16.8844C3.08458 15.8794 3.68159 15.0754 4.37811 14.2714C5.17413 13.5678 5.97015 12.9648 6.96517 12.5628C8.95522 11.7588 11.1443 11.7588 13.0348 12.5628C14.0299 12.9648 14.9254 13.5678 15.6219 14.2714C16.3184 14.9749 16.9154 15.8794 17.3134 16.8844C17.4129 17.1859 17.6119 17.5879 17.7114 17.9899H2.28856Z"></path>
    <path d="M12.9 6.88199C13.6 6.18634 14 5.19255 14 4C14 2.80745 13.6 1.91304 12.9 1.11801C11.3 -0.372671 8.7 -0.372671 7.2 1.11801C6.4 1.91304 6 2.90683 6 4C6 5.09317 6.4 6.08696 7.2 6.88199C8.7 8.37267 11.3 8.37267 12.9 6.88199ZM8.6 2.6087C9.3 1.91304 10.7 1.91304 11.4 2.6087C11.8 3.00621 12 3.50311 12 4C12 4.49689 11.8 4.99379 11.4 5.3913C10.7 6.08696 9.3 6.08696 8.6 5.3913C8.2 5.09317 8 4.59627 8 4C8 3.40373 8.2 2.90683 8.6 2.6087Z"></path>
</svg>